:SAMPLES-PER-SECOND 30
:FULLY-SPECIFIED
:DEGREES
34
root  8.65181 39.766 -1.368 -14.7288 -85.1812 11.8442
RightUpLeg  4.43414 -14.0009 -8.78848
RightLeg  16.4868 -8.23598 1.88346
RightFoot  -15.9877 0.0908802 4.9124
RightToes  0.00048216 0.542163 -0.142577
Spine  7.33731 0.371134 9.94532
Spine1  9.50903 2.083 -2.01732
HEad  11.406 6.00846 -7.50792
LeftShoulder1  5.85707 -8.76702 -41.3671
LeftArm  -6.3505 27.2227 -36.5285
LeftForeArm  31.251 -21.0653 -3.45098
LeftHand  -0.25398 0.0180481 5.50724
RightShoulder  4.77955 7.54925 37.2263
RightArm  -26.1275 -17.5328 30.6244
RightForeArm  -6.37642 4.93758 1.97026
RightHand  -3.0701 9.16724 -24.5737
LeftUpLeg  -14.6601 12.4399 0.550699
LeftLeg  41.1644 4.19913 4.3051
LeftFoot  -7.51089 0.266437 -6.61598
LeftToes  1.06246e-005 4.65855e-005 -8.18505e-006
35
root  8.14424 39.8065 -1.17267 -20.0152 -84.0634 17.8228
RightUpLeg  5.13209 -13.6297 -9.84036
RightLeg  15.6299 -9.54025 1.7386
RightFoot  -15.9567 0.0997912 5.16011
RightToes  0.00048216 0.542163 -0.142577
Spine  7.83783 0.969373 10.5811
Spine1  9.02567 2.97022 -3.25715
HEad  11.0661 4.11581 -7.2678
LeftShoulder1  6.32695 -9.34827 -42.7701
LeftArm  -5.64231 29.9934 -38.1317
LeftForeArm  30.2604 -18.5741 -4.07689
LeftHand  -0.25398 0.0180481 5.50724
RightShoulder  4.86098 7.60394 37.7259
RightArm  -23.9395 -16.5797 33.1578
RightForeArm  -6.14128 8.96432 3.57516
RightHand  -3.19815 9.47683 -25.0328
LeftUpLeg  -17.2289 13.499 -0.981077
LeftLeg  37.9327 4.84787 4.39
LeftFoot  -7.44266 0.276274 -6.80924
LeftToes  1.06246e-005 4.65855e-005 -8.18505e-006
36
root  7.58953 39.8162 -0.95179 -21.465 -82.6604 19.8905
RightUpLeg  6.14927 -13.4164 -10.8259
RightLeg  14.676 -10.9225 1.70143
RightFoot  -16.1034 0.111336 5.29719
RightToes  0.00048216 0.542163 -0.142577
Spine  8.25198 1.35241 11.3719
Spine1  8.70215 3.72708 -4.87496
HEad  10.7655 2.2154 -6.70206
LeftShoulder1  6.64484 -9.85784 -43.2368
LeftArm  -7.54441 32.5972 -39.6119
LeftForeArm  30.552 -15.1942 -4.9926
LeftHand  -0.25398 0.0180481 5.50724
RightShoulder  4.95285 7.78025 37.8518
RightArm  -18.2299 -14.8033 35.0259
RightForeArm  -4.46883 12.7298 5.20811
RightHand  -3.25554 9.57081 -25.3016
LeftUpLeg  -19.3982 14.7229 -2.50792
LeftLeg  33.0764 5.96903 4.52069
LeftFoot  -6.74621 0.289946 -6.22345
LeftToes  1.06246e-005 4.65855e-005 -8.18505e-006
37
root  6.98149 39.7732 -0.710761 -21.3397 -81.0526 20.169
RightUpLeg  7.64902 -13.2843 -11.8216
RightLeg  13.6449 -11.948 1.8103
RightFoot  -16.4965 0.168966 6.22703
RightToes  0.00048216 0.542163 -0.142577
Spine  8.65437 1.5948 12.027
Spine1  8.77789 4.36657 -6.44751
HEad  10.3654 0.222503 -5.89138
LeftShoulder1  6.89083 -10.3353 -43.296
LeftArm  -10.2115 34.6016 -40.4424
LeftForeArm  32.1225 -11.5454 -5.58387
LeftHand  -0.25398 0.0180481 5.50724
RightShoulder  5.103 8.09661 37.9462
RightArm  -8.74488 -12.0647 35.9696
RightForeArm  -3.68421 16.5228 5.84785
RightHand  -3.48181 9.97503 -26.3033
LeftUpLeg  -21.0853 16.1049 -4.04926
LeftLeg  27.3305 5.74337 3.5658
LeftFoot  -5.82717 0.319396 -5.89223
LeftToes  1.06246e-005 4.65855e-005 -8.18505e-006
38
root  6.31137 39.6807 -0.447074 -20.2178 -79.4621 19.3614
RightUpLeg  9.28631 -13.16 -12.5723
RightLeg  12.7983 -13.1857 1.77904
RightFoot  -16.9373 0.238251 7.22549
RightToes  0.00048216 0.542163 -0.142577
Spine  9.08971 1.81909 12.458
Spine1  8.95197 4.90835 -7.58764
HEad  9.88057 -1.74545 -5.05635
LeftShoulder1  7.12444 -10.7558 -43.4558
LeftArm  -11.2387 35.9968 -40.1768
LeftForeArm  33.4445 -8.48055 -5.68731
LeftHand  -0.25398 0.0180481 5.50724
RightShoulder  5.25743 8.42743 38.0191
RightArm  1.9368 -8.77803 35.9584
RightForeArm  -3.39514 20.4677 5.4235
RightHand  -3.54485 10.0136 -26.6898
LeftUpLeg  -22.4556 17.6283 -5.57673
LeftLeg  21.2763 3.91929 2.08273
LeftFoot  -4.83562 0.375864 -6.0934
LeftToes  1.06246e-005 4.65855e-005 -8.18505e-006
39
root  5.56534 39.5531 -0.153206 -18.6477 -78.1074 18.1758
RightUpLeg  10.7861 -13.0498 -13.0241
RightLeg  12.2169 -14.7841 1.60027
RightFoot  -17.36 0.273633 7.44438
RightToes  0.00048216 0.542163 -0.142577
Spine  9.53533 2.05785 12.7054
Spine1  8.94039 5.38756 -8.39463
HEad  9.4634 -3.43472 -4.29733
LeftShoulder1  7.27512 -11.0202 -43.5758
LeftArm  -10.6621 37.1022 -39.12
LeftForeArm  34.0729 -6.59895 -5.66111
LeftHand  -0.25398 0.0180481 5.50724
RightShoulder  5.35073 8.67256 37.9034
RightArm  9.86189 -5.32209 35.3438
RightForeArm  -0.869129 23.8899 5.1104
RightHand  -3.22427 9.32725 -25.4555
LeftUpLeg  -23.6222 18.3689 -6.59512
LeftLeg  15.5061 3.22912 0.903644
LeftFoot  -3.51754 0.406794 -5.66392
LeftToes  1.06246e-005 4.65855e-005 -8.18505e-006
40
root  4.73689 39.3726 0.178915 -17.4007 -76.9643 17.2413
RightUpLeg  12.5315 -12.9692 -13.5404
RightLeg  11.5632 -15.6746 1.63217
RightFoot  -17.9693 0.347383 8.07625
RightToes  0.00048216 0.542163 -0.142577
Spine  10.0796 2.21961 12.6147
Spine1  8.90362 5.7536 -8.99471
HEad  9.03527 -4.65997 -3.60105
LeftShoulder1  7.29743 -11.1139 -43.4215
LeftArm  -9.9892 38.0894 -37.7893
LeftForeArm  34.3086 -6.16488 -5.69839
LeftHand  -0.25398 0.0180481 5.50724
RightShoulder  5.34695 8.78448 37.4873
RightArm  14.3193 -1.6403 34.7973
RightForeArm  2.78676 26.1852 5.47538
RightHand  -2.86771 8.67088 -23.7891
LeftUpLeg  -24.1997 15.255 -5.4279
LeftLeg  11.0317 8.29261 -0.549809
LeftFoot  -2.18916 0.327855 -3.93486
LeftToes  1.06246e-005 4.65855e-005 -8.18505e-006
41
root  3.82667 39.1127 0.568016 -16.8644 -75.9579 16.683
RightUpLeg  14.8313 -12.9633 -14.4161
RightLeg  10.9497 -15.4471 1.83695
RightFoot  -18.7568 0.523772 10.0235
RightToes  0.00048216 0.542163 -0.142577
Spine  10.9321 2.25281 12.1874
Spine1  9.02087 5.98805 -9.42871
HEad  8.37727 -5.47839 -2.95894
LeftShoulder1  7.25845 -11.1376 -43.1024
LeftArm  -9.58026 38.7335 -36.3251
LeftForeArm  33.6406 -6.95278 -5.73215
LeftHand  -0.25398 0.0180481 5.50724
RightShoulder  5.25881 8.77954 36.8091
RightArm  17.3017 2.21475 34.7435
RightForeArm  3.89969 27.223 5.65986
RightHand  -2.72366 8.47405 -22.9477
LeftUpLeg  -24.9382 12.2561 -4.14532
LeftLeg  9.40031 14.0067 -1.34652
LeftFoot  -1.80002 0.173481 -1.92955
LeftToes  1.06246e-005 4.65855e-005 -8.18505e-006
42
root  2.81794 38.8001 1.05158 -17.0242 -75.3014 16.6367
RightUpLeg  17.0895 -13.3122 -15.7395
RightLeg  11.2261 -14.7835 1.70337
RightFoot  -19.3125 0.683885 11.675
RightToes  0.00048216 0.542163 -0.142577
Spine  11.9518 2.29244 11.794
Spine1  9.16954 6.30273 -9.99832
HEad  7.58513 -6.08571 -2.3303
LeftShoulder1  7.18141 -11.1296 -42.6407
LeftArm  -9.39193 38.8009 -34.7916
LeftForeArm  32.0229 -8.27478 -5.70217
LeftHand  -0.25398 0.0180481 5.50724
RightShoulder  5.15704 8.76077 36.0659
RightArm  18.6392 5.67453 34.9593
RightForeArm  3.03802 27.191 5.69887
RightHand  -2.60176 8.11951 -22.506
LeftUpLeg  -26.6557 14.8259 -5.91981
LeftLeg  11.5732 13.2351 0.308481
LeftFoot  -2.33309 0.0638545 -0.626401
LeftToes  1.06246e-005 4.65855e-005 -8.18505e-006
43
root  1.67218 38.4739 1.66344 -18.1989 -75.2506 17.9101
RightUpLeg  18.6289 -14.5985 -17.8809
RightLeg  12.7139 -12.6803 1.13149
RightFoot  -19.494 0.779762 12.732
RightToes  0.00048216 0.542163 -0.142577
Spine  12.4786 2.53486 11.4664
Spine1  9.2809 6.89067 -10.9869
HEad  7.11688 -6.52422 -1.62004
LeftShoulder1  6.9778 -10.9729 -41.8247
LeftArm  -9.48693 38.375 -33.547
LeftForeArm  30.035 -9.59393 -5.50019
LeftHand  -0.25398 0.0180481 5.50724
RightShoulder  5.12538 8.8431 35.5409
RightArm  18.2814 8.05894 35.1192
RightForeArm  1.53072 26.5816 5.63716
RightHand  -2.38276 7.32869 -21.91
LeftUpLeg  -28.7508 18.9582 -8.91081
LeftLeg  15.9032 10.438 3.1756
LeftFoot  -2.31943 -0.0417382 0.683453
LeftToes  1.06246e-005 4.65855e-005 -8.18505e-006
44
root  0.392768 38.15 2.38412 -21.1976 -75.4376 21.4301
RightUpLeg  19.6393 -16.7249 -21.0581
RightLeg  14.7173 -7.71854 0.329147
RightFoot  -19.2425 1.00058 16.2993
RightToes  0.00048216 0.542163 -0.142577
Spine  12.2357 2.94406 10.4368
Spine1  9.52564 7.52755 -12.1049
HEad  7.34873 -6.68771 -0.846875
LeftShoulder1  6.64119 -10.5964 -40.7938
LeftArm  -10.0953 37.5533 -32.7355
LeftForeArm  28.2632 -10.7054 -5.13114
LeftHand  -0.25398 0.0180481 5.50724
RightShoulder  5.18844 9.02599 35.4395
RightArm  16.3029 9.12582 35.1718
RightForeArm  0.0705943 25.822 5.53863
RightHand  -2.2592 6.81461 -21.6521
LeftUpLeg  -30.0116 19.6359 -10.2162
LeftLeg  20.69 11.4504 5.12766
LeftFoot  -1.08979 -0.245564 2.7869
LeftToes  1.06246e-005 4.65855e-005 -8.18505e-006
45
root  -0.955369 37.8847 3.15588 -25.2252 -75.0758 25.9026
RightUpLeg  19.8386 -16.8543 -23.5846
RightLeg  17.9665 -4.62856 -1.37968
RightFoot  -17.3724 1.05963 22.6219
RightToes  0.00048216 0.542163 -0.142577
Spine  11.9318 3.2127 8.2898
Spine1  9.80368 7.73146 -12.652
HEad  8.19533 -6.6477 -0.184302
LeftShoulder1  6.3623 -10.2078 -40.1357
LeftArm  -11.0351 36.0767 -31.9639
LeftForeArm  26.5001 -11.4164 -4.73919
LeftHand  -0.25398 0.0180481 5.50724
RightShoulder  5.28863 9.18982 35.6897
RightArm  12.795 8.9009 35.2454
RightForeArm  -1.20867 25.3373 5.49398
RightHand  -2.33542 6.9795 -22.0654
LeftUpLeg  -30.4638 20.2904 -11.7675
LeftLeg  24.9977 11.6174 6.16892
LeftFoot  -0.348232 -0.467853 4.91011
LeftToes  1.06246e-005 4.65855e-005 -8.18505e-006
46
root  -2.31427 37.7825 3.9452 -27.5234 -73.9588 28.133
RightUpLeg  17.6359 -12.1346 -23.1909
RightLeg  25.5116 -9.47354 -5.34426
RightFoot  -11.5013 -0.00502803 24.868
RightToes  0.00048216 0.542163 -0.142577
Spine  12.3753 3.1119 5.81281
Spine1  9.62134 7.28759 -12.202
HEad  9.15289 -6.66214 0.27944
LeftShoulder1  6.34576 -10.1633 -40.1612
LeftArm  -11.8813 33.5474 -30.8729
LeftForeArm  24.5176 -11.5045 -4.48612
LeftHand  -0.25398 0.0180481 5.50724
RightShoulder  5.35162 9.25373 35.9687
RightArm  8.22823 7.49781 35.4393
RightForeArm  -2.53503 25.5471 5.60991
RightHand  -2.45076 7.25075 -22.6405
LeftUpLeg  -29.5837 21.0393 -13.1465
LeftLeg  28.2714 10.3987 6.34381
LeftFoot  -2.04419 -0.479548 6.04756
LeftToes  1.06246e-005 4.65855e-005 -8.18505e-006
47
root  -3.61607 37.8268 4.70407 -27.7841 -72.4706 28.0047
RightUpLeg  12.5227 -7.57105 -21.7164
RightLeg  37.7496 -13.4102 -11.0794
RightFoot  -1.08344 -1.53075 17.8075
RightToes  0.00048216 0.542163 -0.142577
Spine  13.5056 2.74834 3.53408
Spine1  9.08498 6.41973 -11.0204
HEad  9.71992 -6.75151 0.635366
LeftShoulder1  6.6125 -10.5879 -40.6286
LeftArm  -12.2629 29.8103 -29.5721
LeftForeArm  22.8883 -11.0797 -4.44722
LeftHand  -0.25398 0.0180481 5.50724
RightShoulder  5.37278 9.28673 36.0244
RightArm  3.94697 5.48461 35.8047
RightForeArm  -4.50826 26.3918 5.90529
RightHand  -2.50944 7.25828 -23.1441
LeftUpLeg  -27.4415 21.2251 -13.7832
LeftLeg  30.3606 9.17356 6.11007
LeftFoot  -5.61392 -0.276577 6.16816
LeftToes  1.06246e-005 4.65855e-005 -8.18505e-006
